<?xml version="1.0" encoding="UTF-8"?>
<svg xmlns="http://www.w3.org/2000/svg" width="155" height="75" viewBox="0 0 155 75" fill="none">
  <path d="M86.5 40.1639H102.763L101.263 44.4861L99.7628 48.8731L98.2626 53.3731L97.2626 56.8731L96.5 58.8731L95 62.3731L93.5 63.6639L92.5 64.3731L91 65.1639L89.51 65.5161C88.5101 65.7525 87 65.9725 87 67C87 67.5 92.7626 67.1639 92.7626 67.1639H95.7628H99.7628H107.037C107.037 67.1639 105.569 67.1639 108 67.1639C109.737 67.1639 110 67.3731 110 66.8731C110 66.3731 109 66.0538 108.5 65.8731C108 65.6924 107.165 65.357 105.5 64.8731C104.5 64.5823 104.486 63.995 104 62.8731C103.379 61.44 104.263 59.3731 104.763 57.1138L107.263 50.4861L110.263 41.9861L113.263 34.4861L124.5 8.3731L119.25 11.7685L114 15.6639L105.779 33.3731L104.763 34.4861H93.5L86.5 40.1639Z" fill="#312e81"></path>
  <path d="M6.73742 47.9185L6.54634 45.9185V41.9185L6.73742 40.1987L7 38.4185L7.5 36.4185C7.82865 35.4325 8.38627 34.5385 9.12714 33.8096L9.73742 33.2092L11.0658 32.2092L11.9707 31.5836C12.4807 31.2309 12.9568 30.8315 13.3927 30.3904L13.5366 30.2447C13.8886 29.8885 14.2056 29.4995 14.4834 29.0828L14.7185 28.7302C14.949 28.3844 15.1324 28.0095 15.2638 27.6153L15.3973 27.2147C15.5085 26.8812 15.5511 26.5286 15.5225 26.1781C15.493 25.8152 15.3878 25.4625 15.2137 25.1426L15.1658 25.0547C15.0409 24.8253 14.8874 24.6127 14.7089 24.4221L14.6583 24.368C14.3797 24.0704 14.0533 23.8214 13.6927 23.6313L13.5386 23.5501C13.0094 23.271 12.4317 23.0957 11.8366 23.0334L11.4409 22.9921C10.9732 22.9431 10.5016 22.9431 10.0339 22.9921L9.50503 23.0474C8.99733 23.1005 8.50309 23.2434 8.04535 23.4693C7.71405 23.6329 7.40515 23.8383 7.12625 24.0806L6.73743 24.4185L5 26.4185C4.15948 27.6106 3.40987 28.8643 2.75753 30.169L2.73743 30.2092L2.23742 31.0535C1.57257 32.4867 1.05907 33.9854 0.70524 35.5253L0.500006 36.4185L0 40.1987V43.4185C0 44.7495 0.109975 46.0783 0.328802 47.3912L0.500006 48.4185C0.65805 49.5563 0.903194 50.6803 1.23328 51.7805L1.44404 52.4831C1.97198 54.2429 2.65054 55.9539 3.4722 57.5972L3.73742 58.1277L6.73742 62.5L6.90251 62.7058C8.77849 65.045 11.0425 67.0444 13.5958 68.6167C14.6887 69.2898 15.8297 69.8815 17.0095 70.3872L18.7374 71.1277C21.0645 72.125 23.4888 72.878 25.9714 73.3745L27.2374 73.6277C30.4071 74.154 33.6147 74.4185 36.8278 74.4185H37L37.61 74.363C40.8637 74.0672 44.0852 73.4865 47.2374 72.6277L52.2374 70.6277L56.7374 68.1277L61.7374 64.4185L65.2374 61.1592L69.2374 57.6592L72.2374 54.9185C72.7374 54.4185 75.2374 52.1592 75.7374 51.6592C76.3699 51.0267 77.5708 49.5561 78.7374 48.5561L82.7374 44.6592L86.7374 40.6592L93.7374 34.6277L113.737 16.4185L118.987 12.5231L124.237 9.12769L125.893 8.29984C126.788 7.8523 127.714 7.46886 128.663 7.1524L128.833 7.09574C129.768 6.78418 130.726 6.54633 131.697 6.38436L132.405 6.2665C132.959 6.17411 133.52 6.12769 134.082 6.12769H134.449C135.302 6.12769 136.15 6.26524 136.96 6.53506C138.129 6.92479 139.191 7.58138 140.063 8.45283L140.737 9.12769L142.737 11.6277L143.581 13.0335C144.017 13.7608 144.373 14.5336 144.641 15.3382C145.036 16.5234 145.237 17.7646 145.237 19.014V20.6459C145.237 22.8516 144.724 25.0271 143.737 27L143.255 27.9643C142.583 29.3095 141.664 30.5169 140.547 31.5238C139.828 32.1722 139.033 32.7315 138.179 33.1895L135.5 34.6277L133.41 35.5516C133.295 35.6022 133.176 35.6401 133.053 35.6646L130.088 36.2576C128.768 36.5215 128.821 38.4254 130.153 38.6157C130.209 38.6237 130.266 38.6277 130.322 38.6277H132.326C133.929 38.6277 135.527 38.4523 137.091 38.1047C138.518 37.7875 139.911 37.3285 141.247 36.7347L143.737 35.6277L147.737 33.1277L149.125 31.9713C150.194 31.0802 151.13 30.0395 151.902 28.8814C152.457 28.0478 152.925 27.1588 153.297 26.2287L153.737 25.1277L154.237 23.1277C154.57 21.4651 154.737 19.7737 154.737 18.0782V17.6277C154.737 16.2994 154.575 14.9761 154.252 13.6874L154.237 13.6277L154.166 13.4489C153.55 11.9081 152.733 10.4552 151.737 9.12769L150.947 8.07313C150.474 7.44363 149.958 6.84843 149.402 6.29202C148.627 5.51769 147.779 4.82174 146.867 4.2143L146.765 4.14634C145.749 3.46902 144.667 2.89764 143.534 2.44115L142.237 1.91846L139.464 1.12769L136.737 0.627686C135.074 0.488443 133.401 0.488443 131.737 0.627686C130.075 0.96012 128.452 1.46426 126.894 2.13199L125.737 2.62769L123.237 3.62769C120.907 4.81991 118.668 6.18224 116.538 7.70361L112.737 10.4185L107.237 14.9185L61.7374 57.6592L61.6461 57.7442C57.9056 61.2261 53.6374 64.0938 49 66.2407C46.1697 67.5478 43.1853 68.4914 40.118 69.0491L39.2374 69.2092L35 69.6277L30.2374 69.2092C28.7374 69.2092 25.3661 68.3511 24.5 68.1277C23 67.7407 20.9041 66.7407 19.7374 66.2407L16.2374 64.1592C15.4041 63.6592 13.7374 62.1277 12.7374 61.1277C12.3408 60.731 11.4452 59.8354 10.7352 59.1254C10.0731 58.4634 9.87276 58.435 9.46348 57.5929C8.7187 56.0605 7.73011 53.6521 7.41924 51.9769C7.3941 51.8415 7.37113 51.7074 7.3506 51.5766C7.23044 50.8112 7.16089 50.0358 7.00895 49.2761L6.73742 47.9185Z" fill="#ac1e26"></path>
</svg>
