<svg xmlns="http://www.w3.org/2000/svg" width="48" height="48" viewBox="0 0 48 48" fill="none"><path d="M42 30.5C42.5527 30.5 43 30.0527 43 29.5V13.5C43 11.8457 41.6543 10.5 40 10.5H39V9.5C39 7.8457 37.6543 6.5 36 6.5H8C6.3457 6.5 5 7.8457 5 9.5V18.5C5 19.0527 5.44727 19.5 6 19.5C6.55273 19.5 7 19.0527 7 18.5V15.5H37V34.5C37 35.0518 36.5518 35.5 36 35.5H8C7.44824 35.5 7 35.0518 7 34.5V22.5C7 21.9473 6.55273 21.5 6 21.5C5.44727 21.5 5 21.9473 5 22.5V34.5C5 36.1543 6.3457 37.5 8 37.5H9V38.5C9 40.1543 10.3457 41.5 12 41.5H40C41.6543 41.5 43 40.1543 43 38.5V33.5C43 32.9473 42.5527 32.5 42 32.5C41.4473 32.5 41 32.9473 41 33.5V38.5C41 39.0518 40.5518 39.5 40 39.5H12C11.4482 39.5 11 39.0518 11 38.5V37.5H36C37.6543 37.5 39 36.1543 39 34.5V12.5H40C40.5518 12.5 41 12.9482 41 13.5V29.5C41 30.0527 41.4473 30.5 42 30.5ZM21 13.5H7V9.5C7 8.94824 7.44824 8.5 8 8.5H21V13.5ZM37 13.5H23V8.5H36C36.5518 8.5 37 8.94824 37 9.5V13.5Z" fill="#271D16"></path><path d="M10 12C10.5523 12 11 11.5523 11 11C11 10.4477 10.5523 10 10 10C9.44772 10 9 10.4477 9 11C9 11.5523 9.44772 12 10 12Z" fill="#F2751A"></path><path d="M14 12C14.5523 12 15 11.5523 15 11C15 10.4477 14.5523 10 14 10C13.4477 10 13 10.4477 13 11C13 11.5523 13.4477 12 14 12Z" fill="#F2751A"></path><path d="M18 12C18.5523 12 19 11.5523 19 11C19 10.4477 18.5523 10 18 10C17.4477 10 17 10.4477 17 11C17 11.5523 17.4477 12 18 12Z" fill="#F2751A"></path><path d="M34 10H26C25.4473 10 25 10.4473 25 11C25 11.5527 25.4473 12 26 12H34C34.5527 12 35 11.5527 35 11C35 10.4473 34.5527 10 34 10Z" fill="#F2751A"></path><path d="M17.707 21.793C17.3164 21.4023 16.6836 21.4023 16.293 21.793L13.293 24.793C12.9023 25.1836 12.9023 25.8164 13.293 26.207C13.293 26.207 16.293 29.207 16.293 29.207C16.6802 29.5942 17.3199 29.5942 17.707 29.207C18.0976 28.8164 18.0976 28.1836 17.707 27.793L15.4141 25.5L17.707 23.207C18.0976 22.8164 18.0976 22.1836 17.707 21.793Z" fill="#F2751A"></path><path d="M26.293 29.207C26.6616 29.5756 27.315 29.5991 27.707 29.207L30.707 26.207C31.0976 25.8164 31.0976 25.1836 30.707 24.793L27.707 21.793C27.3164 21.4023 26.6836 21.4023 26.293 21.793C25.9023 22.1836 25.9023 22.8164 26.293 23.207L28.5859 25.5L26.293 27.793C25.9024 28.1835 25.9023 28.8162 26.293 29.207Z" fill="#F2751A"></path><path d="M22.0517 22.1843L20.0517 28.1843C19.8769 28.7087 20.1601 29.2751 20.6836 29.4489C21.2007 29.6212 21.7751 29.3361 21.9482 28.8171L23.9482 22.8171C24.123 22.2927 23.8398 21.7262 23.3163 21.5524C22.789 21.3757 22.2265 21.6608 22.0517 22.1843Z" fill="#F2751A"></path><path d="M35 18.5C35 17.9473 34.5527 17.5 34 17.5H10C9.44727 17.5 9 17.9473 9 18.5C9 19.0527 9.44727 19.5 10 19.5H34C34.5527 19.5 35 19.0527 35 18.5Z" fill="#F2751A"></path><path d="M11 33.5H35C35.5527 33.5 36 33.0527 36 32.5C36 31.9473 35.5527 31.5 35 31.5H11C10.4473 31.5 10 31.9473 10 32.5C10 33.0527 10.4473 33.5 11 33.5Z" fill="#F2751A"></path></svg>