<svg xmlns="http://www.w3.org/2000/svg" width="48" height="48" viewBox="0 0 48 48" fill="none"><path d="M36 13H25V10.82C25.85 10.51 26.51 9.84998 26.82 9H31.18C31.6 10.16 32.7 11 34 11C35.65 11 37 9.64996 37 8C37 6.35004 35.65 5 34 5C32.7 5 31.6 5.83997 31.18 7H26.82C26.4 5.83997 25.3 5 24 5C22.7 5 21.6 5.83997 21.18 7H16.82C16.4 5.83997 15.3 5 14 5C12.35 5 11 6.34998 11 8C11 9.65002 12.35 11 14 11C15.3 11 16.4 10.16 16.82 9H21.18C21.49 9.84998 22.15 10.51 23 10.82V13H12C10.35 13 9 14.35 9 16V19C9 19.55 9.45001 20 10 20C10.55 20 11 19.55 11 19V16C11 15.45 11.45 15 12 15H36C36.55 15 37 15.45 37 16V29H33C32.45 29 32 29.45 32 30C32 30.55 32.45 31 33 31H37V32C37 32.55 36.55 33 36 33H21V31H29C29.55 31 30 30.55 30 30C30 29.45 29.55 29 29 29H11V23C11 22.45 10.55 22 10 22C9.45001 22 9 22.45 9 23V32C9 33.65 10.35 35 12 35H20.38L19.38 37H18C16.9 37 16 37.9 16 39V41C16 42.1 16.9 43 18 43H30C31.1 43 32 42.1 32 41V39C32 37.9 31.1 37 30 37H28.62L27.62 35H36C37.65 35 39 33.65 39 32V16C39 14.35 37.65 13 36 13ZM34 7C34.55 7 35 7.45001 35 8C35 8.54999 34.55 9 34 9C33.45 9 33 8.54999 33 8C33 7.45001 33.45 7 34 7ZM14 9C13.45 9 13 8.54999 13 8C13 7.45001 13.45 7 14 7C14.55 7 15 7.45001 15 8C15 8.54999 14.55 9 14 9ZM24 9C23.45 9 23 8.54999 23 8C23 7.45001 23.45 7 24 7C24.55 7 25 7.45001 25 8C25 8.54999 24.55 9 24 9ZM14 33H12C11.45 33 11 32.55 11 32V31H14V33ZM19 33H16V31H19V33ZM22.62 35H25.38L26.38 37H21.62L22.62 35ZM30 39V41H18V39H30Z" fill="#271D16"></path><path d="M14 23H18C18.5523 23 19 22.5523 19 22C19 21.4477 18.5523 21 18 21H14C13.4477 21 13 21.4477 13 22C13 22.5523 13.4477 23 14 23Z" fill="#F2751A"></path><path d="M14 27H21C21.5523 27 22 26.5527 22 26C22 25.4473 21.5523 25 21 25H14C13.4477 25 13 25.4473 13 26C13 26.5527 13.4477 27 14 27Z" fill="#F2751A"></path></svg>