<svg xmlns="http://www.w3.org/2000/svg" width="48" height="48" viewBox="0 0 48 48" fill="none"><path d="M40 17C40.5523 17 41 16.5523 41 16V13C41 11.3457 39.6543 10 38 10H29.4805L26.3779 6.12158C25.8022 5.40869 24.9502 5 24.04 5H14C12.3457 5 11 6.3457 11 8V9H10C8.3457 9 7 10.3457 7 12V25C7 25.5523 7.44775 26 8 26C8.55225 26 9 25.5523 9 25V20H35V32C35 32.5513 34.5513 33 34 33H10C9.44873 33 9 32.5513 9 32V29C9 28.4477 8.55225 28 8 28C7.44775 28 7 28.4477 7 29V32C7 33.6543 8.3457 35 10 35H23V37.1843C22.1528 37.4863 21.4863 38.1528 21.1843 39H16.8157C16.4016 37.8385 15.3019 37 14 37C12.3457 37 11 38.3457 11 40C11 41.6543 12.3457 43 14 43C15.3019 43 16.4016 42.1615 16.8157 41H21.1843C21.5984 42.1615 22.6981 43 24 43C25.3019 43 26.4016 42.1615 26.8157 41H31.1843C31.5984 42.1615 32.698 43 34 43C35.6543 43 37 41.6543 37 40C37 38.3457 35.6543 37 34 37C32.698 37 31.5984 37.8385 31.1843 39H26.8157C26.5137 38.1528 25.8472 37.4863 25 37.1843V35H34C35.6543 35 37 33.6543 37 32V31H38C39.6543 31 41 29.6543 41 28V20C41 19.4477 40.5523 19 40 19C39.4477 19 39 19.4477 39 20V28C39 28.5513 38.5513 29 38 29H37V17C37 15.3457 35.6543 14 34 14H25.4805L22.3779 10.1216C21.8022 9.40869 20.9502 9 20.04 9H13V8C13 7.44873 13.4487 7 14 7H24.04C24.3428 7 24.6279 7.1377 24.8193 7.37451L28.2192 11.6245C28.4087 11.8618 28.6963 12 29 12H38C38.5513 12 39 12.4487 39 13V16C39 16.5523 39.4477 17 40 17ZM14 41C13.4487 41 13 40.5513 13 40C13 39.4487 13.4487 39 14 39C14.5513 39 15 39.4487 15 40C15 40.5513 14.5513 41 14 41ZM24 41C23.4487 41 23 40.5513 23 40C23 39.4487 23.4487 39 24 39C24.5513 39 25 39.4487 25 40C25 40.5513 24.5513 41 24 41ZM34 39C34.5513 39 35 39.4487 35 40C35 40.5513 34.5513 41 34 41C33.4487 41 33 40.5513 33 40C33 39.4487 33.4487 39 34 39ZM20.8193 11.3745L24.2192 15.6245C24.4087 15.8618 24.6963 16 25 16H34C34.5513 16 35 16.4487 35 17V18H9V12C9 11.4487 9.44873 11 10 11H20.04C20.3428 11 20.6279 11.1377 20.8193 11.3745Z" fill="#271D16"></path><path d="M11 14.5C11 15.0523 11.4477 15.5 12 15.5H19C19.5523 15.5 20 15.0523 20 14.5C20 13.9477 19.5523 13.5 19 13.5H12C11.4477 13.5 11 13.9477 11 14.5Z" fill="#F2751A"></path><path d="M18 31C18.5523 31 19 30.5523 19 30V26C19 25.4477 18.5523 25 18 25H12C11.4477 25 11 25.4477 11 26V30C11 30.5523 11.4477 31 12 31H18ZM13 27H17V29H13V27Z" fill="#F2751A"></path></svg>