<svg xmlns="http://www.w3.org/2000/svg" width="48" height="48" viewBox="0 0 48 48" fill="none"><path d="M13 39C13.5523 39 14 38.5523 14 38C14 37.4477 13.5523 37 13 37C12.4477 37 12 37.4477 12 38C12 38.5523 12.4477 39 13 39Z" fill="#F2751A"></path><path d="M17 39C17.5523 39 18 38.5523 18 38C18 37.4477 17.5523 37 17 37C16.4477 37 16 37.4477 16 38C16 38.5523 16.4477 39 17 39Z" fill="#F2751A"></path><path d="M36 38C36 37.4477 35.5523 37 35 37H27C26.4477 37 26 37.4477 26 38C26 38.5523 26.4477 39 27 39H35C35.5523 39 36 38.5523 36 38Z" fill="#F2751A"></path><path d="M13 31C13.5523 31 14 30.5523 14 30C14 29.4477 13.5523 29 13 29C12.4477 29 12 29.4477 12 30C12 30.5523 12.4477 31 13 31Z" fill="#F2751A"></path><path d="M17 31C17.5523 31 18 30.5523 18 30C18 29.4477 17.5523 29 17 29C16.4477 29 16 29.4477 16 30C16 30.5523 16.4477 31 17 31Z" fill="#F2751A"></path><path d="M21 39C21.5523 39 22 38.5523 22 38C22 37.4477 21.5523 37 21 37C20.4477 37 20 37.4477 20 38C20 38.5523 20.4477 39 21 39Z" fill="#F2751A"></path><path d="M21 31C21.5523 31 22 30.5523 22 30C22 29.4477 21.5523 29 21 29C20.4477 29 20 29.4477 20 30C20 30.5523 20.4477 31 21 31Z" fill="#F2751A"></path><path d="M35 29H27C26.4477 29 26 29.4477 26 30C26 30.5523 26.4477 31 27 31H35C35.5523 31 36 30.5523 36 30C36 29.4477 35.5523 29 35 29Z" fill="#F2751A"></path><path d="M40 20C40 18.35 38.65 17 37 17H25V10.82C25.85 10.51 26.51 9.84998 26.82 9H31.18C31.6 10.16 32.7 11 34 11C35.65 11 37 9.64996 37 8C37 6.35004 35.65 5 34 5C32.7 5 31.6 5.83997 31.18 7H26.82C26.4 5.83997 25.3 5 24 5C22.7 5 21.6 5.83997 21.18 7H16.82C16.4 5.83997 15.3 5 14 5C12.35 5 11 6.34998 11 8C11 9.65002 12.35 11 14 11C15.3 11 16.4 10.16 16.82 9H21.18C21.49 9.84998 22.15 10.51 23 10.82V17H19C18.45 17 18 17.45 18 18C18 18.55 18.45 19 19 19H37C37.55 19 38 19.45 38 20V24C38 24.55 37.55 25 37 25H11C10.45 25 10 24.55 10 24V20C10 19.45 10.45 19 11 19H15C15.55 19 16 18.55 16 18C16 17.45 15.55 17 15 17H11C9.34998 17 8 18.35 8 20V24C8 24.77 8.29999 25.47 8.78003 26C8.29999 26.53 8 27.23 8 28V32C8 32.77 8.29999 33.47 8.78003 34C8.29999 34.53 8 35.23 8 36V40C8 41.65 9.34998 43 11 43H27C27.55 43 28 42.55 28 42C28 41.45 27.55 41 27 41H11C10.45 41 10 40.55 10 40V36C10 35.45 10.45 35 11 35H37C37.55 35 38 35.45 38 36V40C38 40.55 37.55 41 37 41H31C30.45 41 30 41.45 30 42C30 42.55 30.45 43 31 43H37C38.65 43 40 41.65 40 40V36C40 35.23 39.7 34.53 39.22 34C39.7 33.47 40 32.77 40 32V28C40 27.23 39.7 26.53 39.22 26C39.7 25.47 40 24.77 40 24V20ZM34 7C34.55 7 35 7.45001 35 8C35 8.54999 34.55 9 34 9C33.45 9 33 8.54999 33 8C33 7.45001 33.45 7 34 7ZM14 9C13.45 9 13 8.54999 13 8C13 7.45001 13.45 7 14 7C14.55 7 15 7.45001 15 8C15 8.54999 14.55 9 14 9ZM24 9C23.45 9 23 8.54999 23 8C23 7.45001 23.45 7 24 7C24.55 7 25 7.45001 25 8C25 8.54999 24.55 9 24 9ZM38 32C38 32.55 37.55 33 37 33H11C10.45 33 10 32.55 10 32V28C10 27.45 10.45 27 11 27H37C37.55 27 38 27.45 38 28V32Z" fill="#271D16"></path><path d="M13 23C13.5523 23 14 22.5523 14 22C14 21.4477 13.5523 21 13 21C12.4477 21 12 21.4477 12 22C12 22.5523 12.4477 23 13 23Z" fill="#F2751A"></path><path d="M17 23C17.5523 23 18 22.5523 18 22C18 21.4477 17.5523 21 17 21C16.4477 21 16 21.4477 16 22C16 22.5523 16.4477 23 17 23Z" fill="#F2751A"></path><path d="M21 23C21.5523 23 22 22.5523 22 22C22 21.4477 21.5523 21 21 21C20.4477 21 20 21.4477 20 22C20 22.5523 20.4477 23 21 23Z" fill="#F2751A"></path><path d="M35 23C35.5523 23 36 22.5523 36 22C36 21.4477 35.5523 21 35 21H27C26.4477 21 26 21.4477 26 22C26 22.5523 26.4477 23 27 23H35Z" fill="#F2751A"></path></svg>